# xmcd
#
# Track frame offsets: 
#        150
#        4327
#        27337
#        41188
#        70120
#        85240
#        98469
#        116020
#        136619
#        153749
#
# Disc length: 2380 seconds
#
# Revision: 1
# Processed by: cddbd v1.5.2PL0 Copyright (c) Steve Scherf et al.
# Submitted via: ExactAudioCopy v1.0b3
#
DISCID=7a094a0a
DTITLE=BOW WOW - Signal Fire
DYEAR=1977
DGENRE=Hard Rock
TTITLE0=Prelude
TTITLE1=Get On Our Train
TTITLE2=Just One More Night
TTITLE3=Silver Lightning
TTITLE4=Electric Power Up
TTITLE5=Rock 'N' Roll Drive
TTITLE6=Rainbow Of Sabbath
TTITLE7=Tell Me Tell Me
TTITLE8=Signal Fire
TTITLE9=Still
EXTD=YEAR: 1977
EXTT0=
EXTT1=
EXTT2=
EXTT3=
EXTT4=
EXTT5=
EXTT6=
EXTT7=
EXTT8=
EXTT9=
PLAYORDER=
